<svg xmlns="http://www.w3.org/2000/svg" width="1920" height="220" viewBox="0 0 1920 220">
<defs>
<linearGradient id="bg" x1="0" x2="1"><stop stop-color="#06142b"/><stop offset=".5" stop-color="#103e7d"/><stop offset="1" stop-color="#06142b"/></linearGradient>
<radialGradient id="gold" cx="82%" cy="45%" r="25%"><stop stop-color="#fff0a2"/><stop offset=".3" stop-color="#ffc63b"/><stop offset="1" stop-color="#06142b" stop-opacity="0"/></radialGradient>
</defs>
<rect width="1920" height="220" rx="18" fill="url(#bg)"/>
<rect x="3" y="3" width="1914" height="214" rx="18" fill="none" stroke="#ffbf2f" stroke-width="3"/>
<path d="M0 170 C260 70 430 120 640 80 C900 30 1110 120 1320 70 C1540 10 1730 60 1920 25 L1920 220 L0 220Z" fill="#0b2448" opacity=".7"/>
<path d="M0 165 C260 85 430 125 640 92 C900 53 1110 130 1320 88 C1540 45 1730 82 1920 55" fill="none" stroke="#5ebcff" stroke-width="4" opacity=".55"/>
<rect width="1920" height="220" fill="url(#gold)"/>
<g opacity=".9">
<circle cx="120" cy="62" r="5" fill="#ffcc43"/><circle cx="330" cy="45" r="4" fill="#ff5533"/><circle cx="1640" cy="64" r="5" fill="#ffcc43"/><circle cx="1790" cy="112" r="4" fill="#49a7ff"/>
</g>
<text x="960" y="91" text-anchor="middle" font-family="Arial Black,Arial" font-size="62" font-weight="900" fill="#ffcc43" stroke="#813500" stroke-width="2">FIFA WORLD CUP 2026</text>
<rect x="1278" y="42" width="116" height="54" rx="10" fill="#f02b45"/>
<text x="1336" y="79" text-anchor="middle" font-family="Arial Black" font-size="30" fill="#fff">LIVE</text>
<text x="960" y="150" text-anchor="middle" font-family="Arial Black,Arial" font-size="30" fill="#ffffff">XEM TRỰC TIẾP • LỊCH THI ĐẤU • BẢNG XẾP HẠNG</text>
<text x="1660" y="155" text-anchor="middle" font-family="Arial Black" font-size="96" fill="#ffcc43">🏆</text>
<text x="260" y="150" text-anchor="middle" font-family="Arial Black" font-size="88" fill="#fff">⚽</text>
</svg>