<svg xmlns="http://www.w3.org/2000/svg" width="300" height="1100" viewBox="0 0 300 1100">
<defs>
<linearGradient id="bg" x1="0" y1="0" x2="0" y2="1"><stop stop-color="#061a34"/><stop offset=".55" stop-color="#06101d"/><stop offset="1" stop-color="#120807"/></linearGradient>
<radialGradient id="gold" cx="50%" cy="18%" r="45%"><stop stop-color="#fff3a2"/><stop offset=".22" stop-color="#ffcc3e"/><stop offset=".65" stop-color="#b55c00"/><stop offset="1" stop-color="#2a1200" stop-opacity="0"/></radialGradient>
<linearGradient id="cup" x1="0" x2="1"><stop stop-color="#9f5a00"/><stop offset=".25" stop-color="#ffd35b"/><stop offset=".48" stop-color="#fff5ad"/><stop offset=".75" stop-color="#e09600"/><stop offset="1" stop-color="#7c3900"/></linearGradient>
<filter id="glow"><feGaussianBlur stdDeviation="5" result="b"/><feMerge><feMergeNode in="b"/><feMergeNode in="SourceGraphic"/></feMerge></filter>
</defs>
<rect width="300" height="1100" rx="18" fill="url(#bg)"/>
<rect x="5" y="5" width="290" height="1090" rx="16" fill="none" stroke="#ffbf2f" stroke-width="3"/>
<circle cx="150" cy="180" r="180" fill="url(#gold)"/>
<g opacity=".55">
<path d="M0 270 C60 220 120 250 180 210 C230 180 260 200 300 165 L300 310 L0 310Z" fill="#245a98"/>
<path d="M0 305 C70 250 130 280 190 235 C240 205 270 225 300 185 L300 342 L0 342Z" fill="#0d2e5d"/>
</g>
<g filter="url(#glow)" transform="translate(59 90)">
<path d="M57 20c-24 10-37 35-32 62 6 39 35 70 49 80v43H51c-13 0-24 11-24 24v18h128v-18c0-13-11-24-24-24h-23v-43c14-10 43-41 49-80 5-27-8-52-32-62-14-6-27-3-34 8-7-11-20-14-34-8z" fill="url(#cup)" stroke="#fff1a0" stroke-width="4"/>
<path d="M38 69c-23 2-35 18-29 43 6 29 28 51 58 64" fill="none" stroke="url(#cup)" stroke-width="14" stroke-linecap="round"/>
<path d="M144 69c23 2 35 18 29 43-6 29-28 51-58 64" fill="none" stroke="url(#cup)" stroke-width="14" stroke-linecap="round"/>
<circle cx="91" cy="89" r="34" fill="#ffb000" opacity=".55"/>
<path d="M62 249h58l18 28H44z" fill="url(#cup)" stroke="#fff1a0" stroke-width="3"/>
</g>
<text x="150" y="470" text-anchor="middle" font-family="Arial Black,Arial" font-size="46" fill="#fff" font-weight="900">FIFA</text>
<text x="150" y="520" text-anchor="middle" font-family="Arial Black,Arial" font-size="40" fill="#ffd24b" font-weight="900">WORLD CUP</text>
<text x="150" y="595" text-anchor="middle" font-family="Arial Black,Arial" font-size="64" fill="#fff" font-weight="900">2026</text>
<g transform="translate(28 650)">
<rect width="244" height="78" rx="12" fill="#0c213f" stroke="#314f79"/>
<text x="58" y="49" font-size="44" font-family="Arial Black" fill="#ffd24b">🏆</text>
<text x="130" y="42" font-size="38" font-family="Arial Black" fill="#fff">48</text>
<text x="130" y="64" font-size="17" font-family="Arial" fill="#fff" font-weight="900">ĐỘI TUYỂN</text>
</g>
<g transform="translate(28 745)">
<rect width="244" height="78" rx="12" fill="#0c213f" stroke="#314f79"/>
<text x="58" y="49" font-size="38" font-family="Arial Black" fill="#fff">⚽</text>
<text x="130" y="42" font-size="38" font-family="Arial Black" fill="#fff">104</text>
<text x="130" y="64" font-size="17" font-family="Arial" fill="#fff" font-weight="900">TRẬN ĐẤU</text>
</g>
<text x="150" y="1010" text-anchor="middle" font-family="Arial Black" font-size="28" fill="#ffd24b">FULL HD • LIVE</text>
<g opacity=".75">
<circle cx="52" cy="65" r="4" fill="#ffcd40"/><circle cx="246" cy="84" r="4" fill="#ff5533"/><circle cx="70" cy="1018" r="4" fill="#ffcd40"/><circle cx="248" cy="994" r="4" fill="#249bff"/>
</g>
</svg>